<svg width="23" height="24" viewBox="0 0 23 24" fill="none" xmlns="http://www.w3.org/2000/svg">
<path d="M20.1251 6.45556C19.4911 6.73635 18.8093 6.92371 18.09 7.01235C18.8212 6.57823 19.3838 5.88583 19.6478 5.0679C18.9636 5.46896 18.2055 5.76365 17.3991 5.9189C16.7551 5.23608 15.8365 4.8125 14.8188 4.8125C12.8638 4.8125 11.2792 6.38321 11.2792 8.32C11.2792 8.59408 11.3113 8.86098 11.3716 9.12021C8.43052 8.97263 5.82194 7.57442 4.07681 5.45267C3.77015 5.97113 3.59765 6.57823 3.59765 7.21888C3.59765 8.43644 4.22104 9.50833 5.17171 10.1399C4.59144 10.1221 4.04519 9.96067 3.56698 9.70192C3.56698 9.71246 3.56698 9.72827 3.56698 9.74313C3.56698 11.4446 4.78742 12.8615 6.40508 13.184C6.10944 13.265 5.79702 13.31 5.47502 13.31C5.24646 13.31 5.02365 13.2842 4.80802 13.2454C5.25844 14.6359 6.56512 15.6522 8.11331 15.6824C6.90198 16.6216 5.37631 17.1841 3.71744 17.1841C3.4309 17.1841 3.15058 17.1678 2.87363 17.1343C4.44098 18.1266 6.30206 18.7083 8.29971 18.7083C14.8092 18.7083 18.3703 13.3628 18.3703 8.72538C18.3703 8.57348 18.3656 8.42206 18.3584 8.27256C19.0532 7.7819 19.6521 7.16281 20.1251 6.45556Z" fill="white"/>
</svg>
